<svg width="400" height="400" viewBox="0 0 400 400" fill="none" xmlns="http://www.w3.org/2000/svg">
<path fill-rule="evenodd" clip-rule="evenodd" d="M287.156 287.69C271.628 272.122 258.497 259.341 257.922 259.341C257.443 259.341 244.024 272.314 228.209 288.17L199.455 317L170.701 288.17C154.886 272.314 141.563 259.341 140.988 259.341C140.509 259.341 127.186 272.218 111.563 287.882L83 316.52V83L140.796 140.947C172.522 172.756 198.976 198.799 199.455 198.799C199.934 198.799 226.388 172.756 258.114 140.947L315.91 83L316.102 141.62C316.293 173.909 316.197 226.283 315.91 258.188L315.431 316.039L287.156 287.69Z" fill="url(#paint0_linear)"/>
<defs>
<linearGradient id="paint0_linear" x1="344.952" y1="67.8259" x2="83" y2="447.976" gradientUnits="userSpaceOnUse">
<stop stop-color="#ED8795"/>
<stop offset="1" stop-color="#ED8594" stop-opacity="0.3"/>
</linearGradient>
</defs>
</svg>
