<svg width="100" height="22" viewBox="0 0 100 22" fill="none" xmlns="http://www.w3.org/2000/svg">
<path d="M3.97371 12.2011H5.63314L5.88 9.67771H4.30286V8.66286H6.04457L6.36 5.81029H7.82743L7.49829 8.66286H9.55543L9.88457 5.81029H11.352L11.0229 8.66286H12.5726V9.67771H10.872L10.6251 12.2011H12.2709L12.2846 13.216H10.488L10.1863 16H8.73257L9.02057 13.216H6.94971L6.648 16H5.16686L5.48229 13.216H3.97371V12.2011ZM7.34743 9.67771L7.08686 12.2011H9.11657L9.40457 9.67771H7.34743Z" fill="#03B6D4"/>
<path d="M16.2088 16.1509C15.6419 16.1509 15.1345 16.0183 14.6865 15.7531C14.2385 15.4789 13.8819 15.0583 13.6168 14.4914C13.3516 13.9246 13.2191 13.216 13.2191 12.3657C13.2191 11.5977 13.3745 10.8983 13.6854 10.2674C14.0054 9.62743 14.4716 9.12 15.0842 8.74514C15.6968 8.37029 16.4328 8.18286 17.2922 8.18286C17.6396 8.18286 17.9688 8.21943 18.2796 8.29257V5.97486L16.9356 5.78286V5.02857L19.7608 4.75429H19.8019L20.1859 5.04229V15.1634H20.9265V15.9451C20.2682 16.0823 19.7242 16.1509 19.2945 16.1509C19.0019 16.1509 18.7916 16.1006 18.6636 16C18.5448 15.9086 18.4854 15.7211 18.4854 15.4377V15.0537C18.2476 15.3737 17.9231 15.6389 17.5116 15.8491C17.1002 16.0503 16.6659 16.1509 16.2088 16.1509ZM16.9219 15.0126C17.2236 15.0126 17.4888 14.9531 17.7174 14.8343C17.9551 14.7063 18.1425 14.5554 18.2796 14.3817V9.38971C18.2156 9.29829 18.0785 9.22057 17.8682 9.15657C17.6671 9.09257 17.4476 9.06057 17.2099 9.06057C16.6248 9.06057 16.1539 9.31657 15.7974 9.82857C15.4499 10.3314 15.2762 11.1406 15.2762 12.256C15.2762 13.1886 15.4271 13.8834 15.7288 14.3406C16.0305 14.7886 16.4282 15.0126 16.9219 15.0126ZM21.4473 12.2011C21.4473 11.3417 21.6165 10.6103 21.9547 10.0069C22.3022 9.40343 22.7639 8.95086 23.3399 8.64914C23.9159 8.33829 24.5422 8.18286 25.2187 8.18286C26.3707 8.18286 27.2576 8.53943 27.8793 9.25257C28.5102 9.95657 28.8256 10.9166 28.8256 12.1326C28.8256 13.0011 28.6519 13.7417 28.3045 14.3543C27.9662 14.9577 27.509 15.4103 26.933 15.712C26.3662 16.0046 25.7399 16.1509 25.0542 16.1509C23.9113 16.1509 23.0245 15.7989 22.3936 15.0949C21.7627 14.3817 21.4473 13.4171 21.4473 12.2011ZM25.1639 15.2594C26.197 15.2594 26.7136 14.2629 26.7136 12.2697C26.7136 11.2274 26.5902 10.4366 26.3433 9.89714C26.0965 9.34857 25.6942 9.07429 25.1365 9.07429C24.0759 9.07429 23.5456 10.0709 23.5456 12.064C23.5456 13.1063 23.6736 13.9017 23.9296 14.4503C24.1947 14.9897 24.6062 15.2594 25.1639 15.2594ZM28.7832 8.38857H32.3215V9.17029L31.3615 9.33486L32.3763 12.9829L32.7055 14.4777L33.0072 12.9691L34.2415 8.38857H35.9009L37.2586 12.9691L37.5877 14.4777L37.9169 12.9829L38.8769 9.34857L37.8757 9.17029V8.38857H40.8106V9.17029L40.1112 9.32114L38.0266 16.1097H36.4495L35.0643 11.6663L34.7489 10.0343L34.502 11.6663L33.2266 16.1097H31.6357L29.4415 9.32114L28.7832 9.17029V8.38857ZM41.2747 5.97486L40.2325 5.79657V5.056L42.7833 4.75429H42.8245L43.181 5.01486L43.1947 8.07314L43.0987 9.26629C43.3822 9.01029 43.7662 8.77257 44.2507 8.55314C44.7445 8.33371 45.261 8.224 45.8005 8.224C46.3765 8.224 46.8245 8.33371 47.1445 8.55314C47.4645 8.76343 47.6885 9.088 47.8165 9.52686C47.9445 9.96571 48.0085 10.5509 48.0085 11.2823V15.0537L48.8862 15.1771V16H45.2793V15.1771L46.0747 15.0537V11.2823C46.0747 10.8069 46.0427 10.4366 45.9787 10.1714C45.9147 9.90629 45.7959 9.70971 45.6222 9.58171C45.4576 9.45371 45.2107 9.38971 44.8816 9.38971C44.5982 9.38971 44.3056 9.45829 44.0039 9.59543C43.7113 9.72343 43.4507 9.87886 43.2222 10.0617V15.0537L44.0587 15.1771V16H40.5067V15.1771L41.2747 15.0674V5.97486ZM50.9697 7.12686C50.6405 7.12686 50.38 7.03086 50.188 6.83886C49.996 6.64686 49.9 6.4 49.9 6.09829C49.9 5.75086 50.0097 5.46286 50.2291 5.23429C50.4485 5.00571 50.7411 4.89143 51.1068 4.89143C51.4725 4.89143 51.7514 4.992 51.9434 5.19314C52.1354 5.38514 52.2314 5.62743 52.2314 5.92C52.2314 6.28571 52.1217 6.57829 51.9022 6.79771C51.6828 7.01714 51.3765 7.12686 50.9834 7.12686H50.9697ZM50.2428 9.67771L49.2691 9.41714V8.49829L51.7788 8.19657H51.8062L52.1902 8.47086V15.0674L53.1091 15.1771V16H49.2828V15.1771L50.2428 15.0537V9.67771ZM54.4076 5.97486L53.3927 5.79657V5.056L55.9299 4.75429H55.9573L56.3276 5.01486V15.0674L57.3287 15.1771V16H53.4476V15.1771L54.4076 15.0537V5.97486ZM61.2489 16.1509C60.042 16.1509 59.1414 15.7989 58.5471 15.0949C57.962 14.3817 57.6694 13.4126 57.6694 12.1874C57.6694 11.3646 57.8203 10.6514 58.122 10.048C58.4329 9.44457 58.8671 8.98286 59.4249 8.66286C59.9826 8.34286 60.6271 8.18286 61.3586 8.18286C62.2729 8.18286 62.9769 8.42514 63.4706 8.90971C63.9643 9.38514 64.2203 10.0663 64.2386 10.9531C64.2386 11.5566 64.202 12.0046 64.1289 12.2971H59.6717C59.7083 13.1291 59.9049 13.7783 60.2614 14.2446C60.618 14.7017 61.1254 14.9303 61.7837 14.9303C62.1403 14.9303 62.506 14.8709 62.8809 14.752C63.2649 14.6331 63.5666 14.4914 63.786 14.3269L64.1289 15.0811C63.882 15.3463 63.4797 15.5931 62.922 15.8217C62.3734 16.0411 61.8157 16.1509 61.2489 16.1509ZM62.3186 11.4743C62.3369 11.2183 62.346 11.0217 62.346 10.8846C62.346 9.66857 61.9391 9.06057 61.1254 9.06057C60.6774 9.06057 60.33 9.23886 60.0831 9.59543C59.8363 9.952 59.6991 10.5783 59.6717 11.4743H62.3186ZM64.757 15.2594C66.0279 14.5097 67.0702 13.6823 67.8839 12.7771C68.6976 11.872 69.1045 10.9989 69.1045 10.1577C69.1045 9.70971 68.9627 9.35314 68.6793 9.088C68.405 8.81371 68.0165 8.67657 67.5136 8.67657C67.0382 8.67657 66.6359 8.768 66.3067 8.95086C65.9867 9.12457 65.6713 9.35314 65.3605 9.63657L64.8393 8.88229C65.0222 8.65371 65.2827 8.42057 65.621 8.18286C65.9685 7.94514 66.3707 7.74857 66.8279 7.59314C67.285 7.42857 67.7467 7.34629 68.213 7.34629C68.8805 7.34629 69.4382 7.46057 69.8862 7.68914C70.3433 7.91771 70.6816 8.21943 70.901 8.59429C71.1205 8.96914 71.2302 9.38514 71.2302 9.84229C71.2302 10.72 70.8096 11.6023 69.9685 12.4891C69.1273 13.376 68.0576 14.1897 66.7593 14.9303L70.7365 14.56L71.2576 13.408L72.1216 13.5863L71.7239 16H65.045L64.757 15.2594ZM76.4343 16.1371C75.264 16.1371 74.368 15.7486 73.7463 14.9714C73.1337 14.1851 72.8275 13.12 72.8275 11.776C72.8275 10.8251 73.0057 10.0206 73.3623 9.36229C73.7189 8.69486 74.1897 8.19657 74.7749 7.86743C75.3692 7.52914 76.0275 7.36 76.7497 7.36C77.9292 7.36 78.816 7.73486 79.4103 8.48457C80.0046 9.22514 80.3017 10.2766 80.3017 11.6389C80.3017 12.5806 80.128 13.3943 79.7806 14.08C79.4423 14.7566 78.9806 15.2686 78.3955 15.616C77.8103 15.9634 77.1566 16.1371 76.4343 16.1371ZM76.5715 15.3143C77.1475 15.3143 77.568 15.0217 77.8332 14.4366C78.1075 13.8423 78.2446 12.96 78.2446 11.7897C78.2446 10.5463 78.1166 9.63657 77.8606 9.06057C77.6137 8.47543 77.1886 8.18286 76.5852 8.18286C75.4515 8.18286 74.8846 9.33029 74.8846 11.6251C74.8846 12.8503 75.0172 13.7737 75.2823 14.3954C75.5566 15.008 75.9863 15.3143 76.5715 15.3143ZM81.114 15.2594C82.3848 14.5097 83.4271 13.6823 84.2408 12.7771C85.0546 11.872 85.4614 10.9989 85.4614 10.1577C85.4614 9.70971 85.3197 9.35314 85.0363 9.088C84.762 8.81371 84.3734 8.67657 83.8706 8.67657C83.3951 8.67657 82.9928 8.768 82.6637 8.95086C82.3437 9.12457 82.0283 9.35314 81.7174 9.63657L81.1963 8.88229C81.3791 8.65371 81.6397 8.42057 81.978 8.18286C82.3254 7.94514 82.7277 7.74857 83.1848 7.59314C83.642 7.42857 84.1037 7.34629 84.57 7.34629C85.2374 7.34629 85.7951 7.46057 86.2431 7.68914C86.7003 7.91771 87.0386 8.21943 87.258 8.59429C87.4774 8.96914 87.5871 9.38514 87.5871 9.84229C87.5871 10.72 87.1666 11.6023 86.3254 12.4891C85.4843 13.376 84.4146 14.1897 83.1163 14.9303L87.0934 14.56L87.6146 13.408L88.4786 13.5863L88.0808 16H81.402L81.114 15.2594ZM92.7913 16.1371C91.621 16.1371 90.725 15.7486 90.1033 14.9714C89.4907 14.1851 89.1844 13.12 89.1844 11.776C89.1844 10.8251 89.3627 10.0206 89.7193 9.36229C90.0758 8.69486 90.5467 8.19657 91.1318 7.86743C91.7261 7.52914 92.3844 7.36 93.1067 7.36C94.2861 7.36 95.173 7.73486 95.7673 8.48457C96.3616 9.22514 96.6587 10.2766 96.6587 11.6389C96.6587 12.5806 96.485 13.3943 96.1376 14.08C95.7993 14.7566 95.3376 15.2686 94.7524 15.616C94.1673 15.9634 93.5136 16.1371 92.7913 16.1371ZM92.9284 15.3143C93.5044 15.3143 93.925 15.0217 94.1901 14.4366C94.4644 13.8423 94.6016 12.96 94.6016 11.7897C94.6016 10.5463 94.4736 9.63657 94.2176 9.06057C93.9707 8.47543 93.5456 8.18286 92.9421 8.18286C91.8084 8.18286 91.2416 9.33029 91.2416 11.6251C91.2416 12.8503 91.3741 13.7737 91.6393 14.3954C91.9136 15.008 92.3433 15.3143 92.9284 15.3143Z" fill="black"/>
</svg>
