<svg width="100" height="100" viewBox="0 0 100 100" fill="none" xmlns="http://www.w3.org/2000/svg">
<path d="M3.045 52.2011H4.70443L4.95129 49.6777H3.37415V48.6629H5.11586L5.43129 45.8103H6.89872L6.56957 48.6629H8.62672L8.95586 45.8103H10.4233L10.0941 48.6629H11.6439V49.6777H9.94329L9.69643 52.2011H11.3421L11.3559 53.216H9.55929L9.25758 56H7.80386L8.09186 53.216H6.021L5.71929 56H4.23815L4.55357 53.216H3.045V52.2011ZM6.41872 49.6777L6.15815 52.2011H8.18786L8.47586 49.6777H6.41872Z" fill="#03B6D4"/>
<path d="M15.2801 56.1509C14.7132 56.1509 14.2058 56.0183 13.7578 55.7531C13.3098 55.4789 12.9532 55.0583 12.6881 54.4914C12.4229 53.9246 12.2904 53.216 12.2904 52.3657C12.2904 51.5977 12.4458 50.8983 12.7566 50.2674C13.0766 49.6274 13.5429 49.12 14.1555 48.7451C14.7681 48.3703 15.5041 48.1829 16.3635 48.1829C16.7109 48.1829 17.0401 48.2194 17.3509 48.2926V45.9749L16.0069 45.7829V45.0286L18.8321 44.7543H18.8732L19.2572 45.0423V55.1634H19.9978V55.9451C19.3395 56.0823 18.7955 56.1509 18.3658 56.1509C18.0732 56.1509 17.8629 56.1006 17.7349 56C17.6161 55.9086 17.5566 55.7211 17.5566 55.4377V55.0537C17.3189 55.3737 16.9944 55.6389 16.5829 55.8491C16.1715 56.0503 15.7372 56.1509 15.2801 56.1509ZM15.9932 55.0126C16.2949 55.0126 16.5601 54.9531 16.7886 54.8343C17.0264 54.7063 17.2138 54.5554 17.3509 54.3817V49.3897C17.2869 49.2983 17.1498 49.2206 16.9395 49.1566C16.7384 49.0926 16.5189 49.0606 16.2812 49.0606C15.6961 49.0606 15.2252 49.3166 14.8686 49.8286C14.5212 50.3314 14.3475 51.1406 14.3475 52.256C14.3475 53.1886 14.4984 53.8834 14.8001 54.3406C15.1018 54.7886 15.4995 55.0126 15.9932 55.0126ZM20.5186 52.2011C20.5186 51.3417 20.6878 50.6103 21.026 50.0069C21.3735 49.4034 21.8352 48.9509 22.4112 48.6491C22.9872 48.3383 23.6135 48.1829 24.29 48.1829C25.442 48.1829 26.3289 48.5394 26.9506 49.2526C27.5815 49.9566 27.8969 50.9166 27.8969 52.1326C27.8969 53.0011 27.7232 53.7417 27.3758 54.3543C27.0375 54.9577 26.5803 55.4103 26.0043 55.712C25.4375 56.0046 24.8112 56.1509 24.1255 56.1509C22.9826 56.1509 22.0958 55.7989 21.4649 55.0949C20.834 54.3817 20.5186 53.4171 20.5186 52.2011ZM24.2352 55.2594C25.2683 55.2594 25.7849 54.2629 25.7849 52.2697C25.7849 51.2274 25.6615 50.4366 25.4146 49.8971C25.1678 49.3486 24.7655 49.0743 24.2078 49.0743C23.1472 49.0743 22.6169 50.0709 22.6169 52.064C22.6169 53.1063 22.7449 53.9017 23.0009 54.4503C23.266 54.9897 23.6775 55.2594 24.2352 55.2594ZM27.8545 48.3886H31.3928V49.1703L30.4328 49.3349L31.4476 52.9829L31.7768 54.4777L32.0785 52.9691L33.3128 48.3886H34.9722L36.3299 52.9691L36.659 54.4777L36.9882 52.9829L37.9482 49.3486L36.947 49.1703V48.3886H39.8819V49.1703L39.1825 49.3211L37.0979 56.1097H35.5208L34.1356 51.6663L33.8202 50.0343L33.5733 51.6663L32.2979 56.1097H30.707L28.5128 49.3211L27.8545 49.1703V48.3886ZM40.346 45.9749L39.3038 45.7966V45.056L41.8546 44.7543H41.8958L42.2523 45.0149L42.266 48.0731L42.17 49.2663C42.4535 49.0103 42.8375 48.7726 43.322 48.5531C43.8158 48.3337 44.3323 48.224 44.8718 48.224C45.4478 48.224 45.8958 48.3337 46.2158 48.5531C46.5358 48.7634 46.7598 49.088 46.8878 49.5269C47.0158 49.9657 47.0798 50.5509 47.0798 51.2823V55.0537L47.9575 55.1771V56H44.3506V55.1771L45.146 55.0537V51.2823C45.146 50.8069 45.114 50.4366 45.05 50.1714C44.986 49.9063 44.8672 49.7097 44.6935 49.5817C44.5289 49.4537 44.282 49.3897 43.9529 49.3897C43.6695 49.3897 43.3769 49.4583 43.0752 49.5954C42.7826 49.7234 42.522 49.8789 42.2935 50.0617V55.0537L43.13 55.1771V56H39.578V55.1771L40.346 55.0674V45.9749ZM50.041 47.1269C49.7118 47.1269 49.4512 47.0309 49.2592 46.8389C49.0672 46.6469 48.9712 46.4 48.9712 46.0983C48.9712 45.7509 49.081 45.4629 49.3004 45.2343C49.5198 45.0057 49.8124 44.8914 50.1781 44.8914C50.5438 44.8914 50.8227 44.992 51.0147 45.1931C51.2067 45.3851 51.3027 45.6274 51.3027 45.92C51.3027 46.2857 51.193 46.5783 50.9735 46.7977C50.7541 47.0171 50.4478 47.1269 50.0547 47.1269H50.041ZM49.3141 49.6777L48.3404 49.4171V48.4983L50.8501 48.1966H50.8775L51.2615 48.4709V55.0674L52.1804 55.1771V56H48.3541V55.1771L49.3141 55.0537V49.6777ZM53.4789 45.9749L52.464 45.7966V45.056L55.0011 44.7543H55.0286L55.3989 45.0149V55.0674L56.4 55.1771V56H52.5189V55.1771L53.4789 55.0537V45.9749ZM60.3201 56.1509C59.1133 56.1509 58.2127 55.7989 57.6184 55.0949C57.0333 54.3817 56.7407 53.4126 56.7407 52.1874C56.7407 51.3646 56.8916 50.6514 57.1933 50.048C57.5041 49.4446 57.9384 48.9829 58.4961 48.6629C59.0539 48.3429 59.6984 48.1829 60.4299 48.1829C61.3441 48.1829 62.0481 48.4251 62.5419 48.9097C63.0356 49.3851 63.2916 50.0663 63.3099 50.9531C63.3099 51.5566 63.2733 52.0046 63.2001 52.2971H58.743C58.7796 53.1291 58.9761 53.7783 59.3327 54.2446C59.6893 54.7017 60.1967 54.9303 60.855 54.9303C61.2116 54.9303 61.5773 54.8709 61.9521 54.752C62.3361 54.6331 62.6379 54.4914 62.8573 54.3269L63.2001 55.0811C62.9533 55.3463 62.551 55.5931 61.9933 55.8217C61.4447 56.0411 60.887 56.1509 60.3201 56.1509ZM61.3899 51.4743C61.4081 51.2183 61.4173 51.0217 61.4173 50.8846C61.4173 49.6686 61.0104 49.0606 60.1967 49.0606C59.7487 49.0606 59.4013 49.2389 59.1544 49.5954C58.9076 49.952 58.7704 50.5783 58.743 51.4743H61.3899ZM63.8283 55.2594C65.0992 54.5097 66.1415 53.6823 66.9552 52.7771C67.7689 51.872 68.1757 50.9989 68.1757 50.1577C68.1757 49.7097 68.034 49.3531 67.7506 49.088C67.4763 48.8137 67.0877 48.6766 66.5849 48.6766C66.1095 48.6766 65.7072 48.768 65.378 48.9509C65.058 49.1246 64.7426 49.3531 64.4317 49.6366L63.9106 48.8823C64.0935 48.6537 64.354 48.4206 64.6923 48.1829C65.0397 47.9451 65.442 47.7486 65.8992 47.5931C66.3563 47.4286 66.818 47.3463 67.2843 47.3463C67.9517 47.3463 68.5095 47.4606 68.9575 47.6891C69.4146 47.9177 69.7529 48.2194 69.9723 48.5943C70.1918 48.9691 70.3015 49.3851 70.3015 49.8423C70.3015 50.72 69.8809 51.6023 69.0397 52.4891C68.1986 53.376 67.1289 54.1897 65.8306 54.9303L69.8078 54.56L70.3289 53.408L71.1929 53.5863L70.7952 56H64.1163L63.8283 55.2594ZM75.5056 56.1371C74.3353 56.1371 73.4393 55.7486 72.8176 54.9714C72.205 54.1851 71.8988 53.12 71.8988 51.776C71.8988 50.8251 72.077 50.0206 72.4336 49.3623C72.7902 48.6949 73.261 48.1966 73.8462 47.8674C74.4405 47.5291 75.0988 47.36 75.821 47.36C77.0005 47.36 77.8873 47.7349 78.4816 48.4846C79.0759 49.2251 79.373 50.2766 79.373 51.6389C79.373 52.5806 79.1993 53.3943 78.8519 54.08C78.5136 54.7566 78.0519 55.2686 77.4668 55.616C76.8816 55.9634 76.2279 56.1371 75.5056 56.1371ZM75.6428 55.3143C76.2188 55.3143 76.6393 55.0217 76.9045 54.4366C77.1788 53.8423 77.3159 52.96 77.3159 51.7897C77.3159 50.5463 77.1879 49.6366 76.9319 49.0606C76.685 48.4754 76.2599 48.1829 75.6565 48.1829C74.5228 48.1829 73.9559 49.3303 73.9559 51.6251C73.9559 52.8503 74.0885 53.7737 74.3536 54.3954C74.6279 55.008 75.0576 55.3143 75.6428 55.3143ZM80.1853 55.2594C81.4561 54.5097 82.4984 53.6823 83.3121 52.7771C84.1259 51.872 84.5327 50.9989 84.5327 50.1577C84.5327 49.7097 84.391 49.3531 84.1076 49.088C83.8333 48.8137 83.4447 48.6766 82.9419 48.6766C82.4664 48.6766 82.0641 48.768 81.735 48.9509C81.415 49.1246 81.0996 49.3531 80.7887 49.6366L80.2676 48.8823C80.4504 48.6537 80.711 48.4206 81.0493 48.1829C81.3967 47.9451 81.799 47.7486 82.2561 47.5931C82.7133 47.4286 83.175 47.3463 83.6413 47.3463C84.3087 47.3463 84.8664 47.4606 85.3144 47.6891C85.7716 47.9177 86.1099 48.2194 86.3293 48.5943C86.5487 48.9691 86.6584 49.3851 86.6584 49.8423C86.6584 50.72 86.2379 51.6023 85.3967 52.4891C84.5556 53.376 83.4859 54.1897 82.1876 54.9303L86.1647 54.56L86.6859 53.408L87.5499 53.5863L87.1521 56H80.4733L80.1853 55.2594ZM91.8626 56.1371C90.6923 56.1371 89.7963 55.7486 89.1746 54.9714C88.562 54.1851 88.2557 53.12 88.2557 51.776C88.2557 50.8251 88.434 50.0206 88.7906 49.3623C89.1471 48.6949 89.618 48.1966 90.2031 47.8674C90.7974 47.5291 91.4557 47.36 92.178 47.36C93.3574 47.36 94.2443 47.7349 94.8386 48.4846C95.4329 49.2251 95.73 50.2766 95.73 51.6389C95.73 52.5806 95.5563 53.3943 95.2089 54.08C94.8706 54.7566 94.4089 55.2686 93.8237 55.616C93.2386 55.9634 92.5849 56.1371 91.8626 56.1371ZM91.9997 55.3143C92.5757 55.3143 92.9963 55.0217 93.2614 54.4366C93.5357 53.8423 93.6729 52.96 93.6729 51.7897C93.6729 50.5463 93.5449 49.6366 93.2889 49.0606C93.042 48.4754 92.6169 48.1829 92.0134 48.1829C90.8797 48.1829 90.3129 49.3303 90.3129 51.6251C90.3129 52.8503 90.4454 53.7737 90.7106 54.3954C90.9849 55.008 91.4146 55.3143 91.9997 55.3143Z" fill="black"/>
</svg>
