<svg width="400" height="400" viewBox="0 0 400 400" fill="none" xmlns="http://www.w3.org/2000/svg">
<g clip-path="url(#clip0)">
<path d="M111.79 171.088H174.8V176.105H117.566V213.869H171.387V218.886H117.566V260.347H175.456V265.365H111.79V171.088ZM180.445 171.088H187.139L216.807 212.549L247.13 171.088L288.375 118.423L220.613 216.906L255.531 265.365H248.574L216.807 221.263L184.908 265.365H178.082L213.262 216.906L180.445 171.088ZM258.026 176.105V171.088H329.831V176.105H296.751V265.365H290.975V176.105H258.026ZM32.9619 171.088H40.1818L139.74 320.347L98.5973 265.365L39.0004 178.218L38.7378 265.365H32.9619V171.088ZM329.249 258.833C328.069 258.833 327.184 257.917 327.184 256.733C327.184 255.549 328.069 254.633 329.249 254.633C330.443 254.633 331.314 255.549 331.314 256.733C331.314 257.917 330.443 258.833 329.249 258.833ZM334.924 253.309H338.015C338.057 254.986 339.279 256.113 341.078 256.113C343.086 256.113 344.224 254.901 344.224 252.632V238.257H347.371V252.646C347.371 256.733 345.011 259.087 341.106 259.087C337.439 259.087 334.924 256.804 334.924 253.309ZM351.487 253.125H354.606C354.873 255.056 356.755 256.282 359.467 256.282C361.995 256.282 363.85 254.971 363.85 253.168C363.85 251.617 362.67 250.687 359.987 250.053L357.374 249.419C353.707 248.559 352.035 246.783 352.035 243.796C352.035 240.174 354.985 237.764 359.411 237.764C363.527 237.764 366.533 240.174 366.716 243.598H363.653C363.358 241.724 361.729 240.554 359.368 240.554C356.882 240.554 355.224 241.752 355.224 243.584C355.224 245.036 356.292 245.867 358.933 246.487L361.167 247.037C365.325 248.009 367.039 249.701 367.039 252.759C367.039 256.649 364.033 259.087 359.228 259.087C354.733 259.087 351.712 256.761 351.487 253.125Z" fill="black"/>
</g>
<defs>
<clipPath id="clip0">
<rect width="334.077" height="202" fill="white" transform="translate(32.9619 99)"/>
</clipPath>
</defs>
</svg>
