<svg width="400" height="400" viewBox="0 0 400 400" fill="none" xmlns="http://www.w3.org/2000/svg">
<path d="M199.5 100C154.833 100 126.917 122.333 115.75 167C132.5 144.667 152.042 136.292 174.375 141.875C187.117 145.061 196.225 154.305 206.306 164.538C222.729 181.207 241.735 200.5 283.25 200.5C327.917 200.5 355.833 178.167 367 133.5C350.25 155.833 330.708 164.208 308.375 158.625C295.633 155.439 286.525 146.195 276.444 135.962C260.021 119.293 241.015 100 199.5 100ZM115.75 200.5C71.0833 200.5 43.1667 222.833 32 267.5C48.75 245.167 68.2917 236.792 90.625 242.375C103.367 245.561 112.475 254.805 122.556 265.038C138.979 281.707 157.985 301 199.5 301C244.167 301 272.083 278.667 283.25 234C266.5 256.333 246.958 264.708 224.625 259.125C211.883 255.939 202.775 246.695 192.694 236.462C176.271 219.793 157.265 200.5 115.75 200.5Z" fill="url(#paint0_linear)"/>
<defs>
<linearGradient id="paint0_linear" x1="22.6944" y1="164.32" x2="312.022" y2="331.139" gradientUnits="userSpaceOnUse">
<stop stop-color="#2298BD"/>
<stop offset="1" stop-color="#0ED7B5"/>
</linearGradient>
</defs>
</svg>
